<svg xmlns="http://www.w3.org/2000/svg" viewBox="0 0 16 16" width="16" height="16" fill="currentColor">
  <!-- Brain/AI representation -->
  <defs>
    <linearGradient id="brainGradient" x1="0%" y1="0%" x2="100%" y2="100%">
      <stop offset="0%" style="stop-color:#4A90E2;stop-opacity:1" />
      <stop offset="100%" style="stop-color:#7B68EE;stop-opacity:1" />
    </linearGradient>
  </defs>
  
  <!-- Brain outline -->
  <path d="M8 1C5.5 1 3.5 2.8 3.5 5c0 .5.1 1 .3 1.4C3.3 6.6 3 7.3 3 8c0 1.1.4 2.1 1.1 2.8-.1.4-.1.8-.1 1.2 0 2.2 2 4 4.5 4h1c2.5 0 4.5-1.8 4.5-4 0-.4 0-.8-.1-1.2.7-.7 1.1-1.7 1.1-2.8 0-.7-.3-1.4-.8-1.6.2-.4.3-.9.3-1.4 0-2.2-2-4-4.5-4z" 
        fill="url(#brainGradient)" stroke="currentColor" stroke-width="0.5" opacity="0.9"/>
  
  <!-- Neural network connections -->
  <g stroke="currentColor" stroke-width="0.8" fill="none" opacity="0.7">
    <line x1="6" y1="6" x2="10" y2="8" />
    <line x1="6" y1="10" x2="10" y2="8" />
    <line x1="10" y1="8" x2="12" y2="6" />
    <line x1="10" y1="8" x2="12" y2="10" />
  </g>
  
  <!-- Neural nodes -->
  <g fill="currentColor" opacity="0.8">
    <circle cx="6" cy="6" r="1" />
    <circle cx="6" cy="10" r="1" />
    <circle cx="10" cy="8" r="1.2" />
    <circle cx="12" cy="6" r="1" />
    <circle cx="12" cy="10" r="1" />
  </g>
  
  <!-- AI spark/glow effect -->
  <g fill="currentColor" opacity="0.6">
    <circle cx="10" cy="8" r="0.5" fill="#FFD700" />
    <path d="M10 6.5 L10.5 7.5 L10 8.5 L9.5 7.5 Z" fill="#FFD700" />
  </g>
</svg>
